<svg xmlns="http://www.w3.org/2000/svg" width="23.56" height="17" viewBox="0 0 23.56 17">
	<style type="text/css">
		.st0{fill:#808080;}
	</style>
	<path class="st0" d="M8.08,17L5.9,17C0.44,17 0,15.85 0,15.85C0,15.17 0.1,14.49 0.29,13.85C0.71,12.85 0.98,12.43 2.78,11.77C4.58,11.11 5.2,10.21 5.29,9.88L5.29,8.68C4.22,7.53 3.61,6.02 3.56,4.46C3.56,1.48 5.26,0 6.99,0C8.72,0 10.42,1.52 10.42,4.46C10.38,6.02 9.77,7.53 8.69,8.68L8.69,9.85C8.77,10.17 9.43,11.07 11.2,11.72C12.97,12.38 13.27,12.84 13.69,13.8C13.89,14.45 13.99,15.13 13.99,15.8C13.99,15.8 13.51,17 8.08,17"/>
	<path class="st0" d="M19.92,17L18.57,17C15.21,17 14.93,16.29 14.93,16.29C14.93,15.87 15,15.45 15.12,15.05C15.38,14.44 15.54,14.18 16.65,13.77C17.76,13.37 18.14,12.81 18.2,12.61L18.2,11.87C17.54,11.16 17.16,10.24 17.13,9.27C17.13,7.44 18.18,6.52 19.24,6.52C20.31,6.52 21.36,7.46 21.36,9.27C21.33,10.24 20.95,11.16 20.29,11.87L20.29,12.59C20.34,12.79 20.75,13.35 21.84,13.75C22.93,14.15 23.11,14.43 23.37,15.03C23.49,15.43 23.56,15.85 23.56,16.26C23.56,16.26 23.26,17 19.92,17"/>
</svg>