<svg xmlns="http://www.w3.org/2000/svg" width="18" height="20" viewBox="0 0 18 20">
	<style type="text/css">
		.st0{fill:#808080;fill-rule:evenodd;}
	</style>
	<path class="st0" d="M2 7L6 7L6 10L2 10ZM2 11L6 11L6 14L2 14ZM2 15L6 15L6 18L2 18ZM7 7L11 7L11 10L7 10ZM7 11L11 11L11 14L7 14ZM7 15L11 15L11 18L7 18ZM12 7L16 7L16 10L12 10ZM12 15L16 15L16 18L12 18ZM0,4L0,18C0,19.1 0.89,20 2,20L16,20C17.1,20 18,19.1 18,18L18,4C18,2.89 17.1,2 16,2L15,2L15,1C15,0.44 14.55,0 14,0L13,0C12.44,0 12,0.44 12,1L12,2L6,2L6,1C6,0.44 5.55,0 5,0L4,0C3.44,0 3,0.44 3,1L3,2L2,2C0.89,2 0,2.89 0,4"/>
</svg>